{"title":"Red.River.1948.DVDRip.XviD.AC3-SNS","uid":5509860,"size":1566499869,"categoryP":"video","categoryS":"movies","magnet":"?xt=urn:btih:323d9a86041346f3af1c306302c771763c1c190c&amp;dn=Red.River.1948.DVDRip.XviD.AC3-SNS&amp;tr=udp%3A%2F%2Ftracker.openbittorrent.com%3A80&amp;tr=udp%3A%2F%2Fopen.demonii.com%3A1337&amp;tr=udp%3A%2F%2Ftracker.coppersurfer.tk%3A6969&amp;tr=udp%3A%2F%2Fexodus.desync.com%3A6969","seeders":1,"leechers":0,"uploader":"snsdg","files":-1,"time":1272009451,"description":"Tom Dunson builds a cattle empire with his adopted son Matthew Garth. Together they begin a massive cattle drive north from Texas to the Missouri railhead. But on the way, new information and Dunson's tyrannical ways cause Matthew to take the herd away from Dunson and head to a new railhead in Kansas. Dunson, swearing vengeance, pursues.\n\n\nIMDB: http://www.imdb.com/title/tt0040724/\n\nTrailer: http://www.tcm.com/mediaroom/index.jsp?cid=12520\n &lt;a href=&quot;\nhttp://www.abload.de/img/coveraalu.jpg&quot; rel=&quot;nofollow&quot; target=&quot;_NEW&quot;&gt;\nhttp://www.abload.de/img/coveraalu.jpg&lt;/a&gt;\n\n\nGeneral\nComplete name                    : Red.River.1948.DVDRip.XviD-SNS.avi\nFormat                           : AVI\nFormat/Info                      : Audio Video Interleave\nFile size                        : 1.46 GiB\nDuration                         : 2h 7mn\nOverall bit rate                 : 1 637 Kbps\nWriting application              : VirtualDubMod 1.5.4.1 (build 2178/release)\nWriting library                  : VirtualDubMod build 2178/release\n\nVideo\nID                               : 0\nFormat                           : MPEG-4 Visual\nFormat profile                   : Advanced Simple@L5\nFormat settings, BVOP            : Yes\nFormat settings, QPel            : No\nFormat settings, GMC             : No warppoints\nFormat settings, Matrix          : Custom\nCodec ID                         : XVID\nCodec ID/Hint                    : XviD\nDuration                         : 2h 7mn\nBit rate                         : 1 438 Kbps\nWidth                            : 592 pixels\nHeight                           : 448 pixels\nDisplay aspect ratio             : 4:3\nFrame rate                       : 25.000 fps\nResolution                       : 8 bits\nColorimetry                      : 4:2:0\nScan type                        : Progressive\nBits/(Pixel*Frame)               : 0.217\nStream size                      : 1.28 GiB (88%)\nWriting library                  : XviD 1.2.1 (UTC 2008-12-04)\n\nAudio\nID                               : 1\nFormat                           : AC-3\nFormat/Info                      : Audio Coding 3\nFormat_Settings_ModeExtension    : CM (complete main)\nCodec ID                         : 2000\nDuration                         : 2h 7mn\nBit rate mode                    : Constant\nBit rate                         : 192 Kbps\nChannel(s)                       : 2 channels\nChannel positions                : Front: L R\nSampling rate                    : 48.0 KHz\nStream size                      : 175 MiB (12%)\nAlignment                        : Aligned on interleaves\nInterleave, duration             : 96 ms (2.40 video frames)\nInterleave, preload duration     : 96 ms\nLanguage                         : English\n\nSource: DVD5, PAL, progressive\nSource resolution: 720x576\nSource aspect ratio: 4:3\n","torrent":{"xt":"urn:btih:323d9a86041346f3af1c306302c771763c1c190c","amp;dn":"Red.River.1948.DVDRip.XviD.AC3-SNS","amp;tr":["udp%3A%2F%2Ftracker.openbittorrent.com%3A80","udp%3A%2F%2Fopen.demonii.com%3A1337","udp%3A%2F%2Ftracker.coppersurfer.tk%3A6969","udp%3A%2F%2Fexodus.desync.com%3A6969"],"infoHash":"323d9a86041346f3af1c306302c771763c1c190c","infoHashBuffer":{"type":"Buffer","data":[50,61,154,134,4,19,70,243,175,28,48,99,2,199,113,118,60,28,25,12]},"announce":[],"urlList":[]}}